<?xml version="1.0" standalone="no"?>
<!DOCTYPE svg PUBLIC "-//W3C//DTD SVG 20010904//EN"
 "http://www.w3.org/TR/2001/REC-SVG-20010904/DTD/svg10.dtd">
<svg version="1.0" xmlns="http://www.w3.org/2000/svg"
 width="700.000000pt" height="700.000000pt" viewBox="0 0 700.000000 700.000000"
 preserveAspectRatio="xMidYMid meet">
<metadata>
Created by potrace 1.14, written by Peter Selinger 2001-2017
</metadata>
<g transform="translate(0.000000,700.000000) scale(0.100000,-0.100000)"
fill="#000000" stroke="none">
<path d="M986 5454 c-196 -38 -356 -123 -493 -259 -40 -40 -73 -75 -73 -79 0
-4 -11 -19 -25 -34 -64 -67 -151 -291 -170 -432 -8 -61 -7 -2231 1 -2300 9
-84 41 -196 79 -276 102 -221 297 -402 520 -483 173 -63 110 -60 1580 -60 830
0 1359 4 1390 10 28 5 61 11 75 14 53 9 176 56 238 91 260 142 441 407 478
700 4 27 7 543 8 1148 1 1207 1 1211 -58 1368 -118 314 -375 528 -710 593
-104 21 -2737 20 -2840 -1z"/>
<path d="M6253 5245 c-87 -19 -32 16 -588 -375 -99 -70 -297 -209 -440 -310
-143 -101 -277 -202 -298 -224 -46 -49 -93 -143 -106 -210 -12 -63 -12 -1188
0 -1252 12 -65 60 -162 103 -207 41 -44 92 -80 756 -547 179 -126 358 -252
398 -281 41 -29 98 -60 128 -70 155 -51 328 -10 446 106 48 48 102 137 112
186 3 13 8 35 11 49 11 48 6 2757 -5 2807 -51 225 -288 375 -517 328z"/>
</g>
</svg>
